<?xml version="1.0" encoding="UTF-8"?>
<!DOCTYPE svg PUBLIC "-//W3C//DTD SVG 1.1//EN" "http://www.w3.org/Graphics/SVG/1.1/DTD/svg11.dtd">
<!-- Creator: CorelDRAW -->
<svg xmlns="http://www.w3.org/2000/svg" xml:space="preserve" width="100mm" height="100mm" style="shape-rendering:geometricPrecision; text-rendering:geometricPrecision; image-rendering:optimizeQuality; fill-rule:evenodd; clip-rule:evenodd"
viewBox="0 0 100 100"
 xmlns:xlink="http://www.w3.org/1999/xlink">
 <defs>
  <style type="text/css">
   <![CDATA[
    .str0 {stroke:#EC268F;stroke-width:1.5}
    .fil0 {fill:none}
    .fil1 {fill:#EC268F}
   ]]>
  </style>
 </defs>
 <g id="Layer_x0020_1">
  <metadata id="CorelCorpID_0Corel-Layer"/>
  <rect class="fil0 str0" width="100" height="100" rx="10.3299" ry="10.3299"/>
  <path class="fil1" d="M73.191 42.9933l-3.9385 0 0 -25.5297 -39.244 0 0 15.7105c2.996,0.8118 5.2048,3.609 5.2048,6.9355 0,3.9619 -3.133,7.1736 -6.9978,7.1736 -3.8648,0 -6.9978,-3.2117 -6.9978,-7.1736 0,-3.4294 2.3478,-6.2963 5.4854,-7.005l0 -20.1422c0,-2.5142 2.057,-4.5712 4.5712,-4.5712l36.5014 0c2.9784,0 5.4153,2.4368 5.4153,5.4152l0 29.1869zm-33.1421 -30.7685l19.4813 0c0.6867,0 1.2484,0.5617 1.2484,1.2484l0 0c0,0.6867 -0.5617,1.2484 -1.2484,1.2484l-19.4813 0c-0.6867,0 -1.2484,-0.5617 -1.2484,-1.2484l0 0c0,-0.6867 0.5617,-1.2484 1.2484,-1.2484zm-12.1065 24.4915c1.9956,0 3.6133,1.6177 3.6133,3.6132 0,1.9955 -1.6177,3.6132 -3.6133,3.6132 -1.9956,0 -3.6133,-1.6177 -3.6133,-3.6132 0,-1.9955 1.6177,-3.6132 3.6133,-3.6132z"/>
  <path class="fil1" d="M26.0348 49.1296l3.9737 0 0 25.319 38.8574 0 0 -15.5399c-2.6008,-1.1089 -4.4306,-3.7467 -4.4306,-6.825 0,-4.0784 3.2117,-7.3846 7.1735,-7.3846 3.9619,0 7.1736,3.3062 7.1736,7.3846 0,3.5574 -2.4436,6.5269 -5.697,7.2277l0 28.0072c0,2.3596 -1.9305,4.2902 -4.2902,4.2902l-37.8373 0c-2.7078,0 -4.9231,-2.2154 -4.9231,-4.9232l0 -37.556zm23.6323 28.8077c2.8937,0 5.2394,2.3503 5.2394,5.2495 0,2.8992 -2.3457,5.2495 -5.2394,5.2495 -2.8937,0 -5.2395,-2.3503 -5.2395,-5.2495 0,-2.8992 2.3458,-5.2495 5.2395,-5.2495zm21.7571 -29.581c2.0829,0 3.7714,1.6373 3.7714,3.6571 0,2.0197 -1.6885,3.6571 -3.7714,3.6571 -2.0828,0 -3.7713,-1.6374 -3.7713,-3.6571 0,-2.0198 1.6885,-3.6571 3.7713,-3.6571z"/>
 </g>
</svg>
